<?xml version="1.0" encoding="UTF-8" standalone="no"?>
<svg
   xmlns:dc="http://purl.org/dc/elements/1.1/"
   xmlns:cc="http://creativecommons.org/ns#"
   xmlns:rdf="http://www.w3.org/1999/02/22-rdf-syntax-ns#"
   xmlns:svg="http://www.w3.org/2000/svg"
   xmlns="http://www.w3.org/2000/svg"
   xmlns:sodipodi="http://sodipodi.sourceforge.net/DTD/sodipodi-0.dtd"
   xmlns:inkscape="http://www.inkscape.org/namespaces/inkscape"
   style="fill-opacity:1; color-rendering:auto; color-interpolation:auto; text-rendering:auto; stroke:black; stroke-linecap:square; stroke-miterlimit:10; shape-rendering:auto; stroke-opacity:1; fill:black; stroke-dasharray:none; font-weight:normal; stroke-width:1; font-family:'Dialog'; font-style:normal; stroke-linejoin:miter; font-size:12px; stroke-dashoffset:0; image-rendering:auto;"
   width="300"
   height="300"
   version="1.1"
   id="svg888"
   sodipodi:docname="logoBase.svg"
   inkscape:version="1.0.2 (e86c8708, 2021-01-15)"
   inkscape:export-filename="/Users/idesrosiers/Documents/Processing/logo/logoBase.png"
   inkscape:export-xdpi="96"
   inkscape:export-ydpi="96">
  <metadata
     id="metadata892">
    <rdf:RDF>
      <cc:Work
         rdf:about="">
        <dc:format>image/svg+xml</dc:format>
        <dc:type
           rdf:resource="http://purl.org/dc/dcmitype/StillImage" />
      </cc:Work>
    </rdf:RDF>
  </metadata>
  <sodipodi:namedview
     pagecolor="#ffffff"
     bordercolor="#666666"
     borderopacity="1"
     objecttolerance="10"
     gridtolerance="10"
     guidetolerance="10"
     inkscape:pageopacity="0"
     inkscape:pageshadow="2"
     inkscape:window-width="1301"
     inkscape:window-height="833"
     id="namedview890"
     showgrid="false"
     inkscape:zoom="7.1205426"
     inkscape:cx="175.88417"
     inkscape:cy="217.77223"
     inkscape:window-x="202"
     inkscape:window-y="25"
     inkscape:window-maximized="0"
     inkscape:current-layer="svg888"
     inkscape:document-rotation="0" />
  <!--Generated by the Batik Graphics2D SVG Generator-->
  <defs
     id="genericDefs" />
  <g
     id="g886">
    <g
       id="g876">
      <circle
         r="50"
         style="fill:none;"
         cx="110"
         cy="150"
         id="circle874" />
    </g>
    <g
       id="g884">
      <circle
         r="50"
         style="fill:none;"
         cx="190"
         cy="150"
         id="circle878" />
      <circle
         r="50"
         style="fill:none;"
         cx="150"
         cy="90"
         id="circle880" />
      <circle
         r="50"
         style="fill:none;"
         cx="150"
         cy="210"
         id="circle882" />
    </g>
  </g>
  <path
     style="fill:#0000ff;stroke:none;stroke-width:0.0534551"
     d="m 141.41257,159.27852 c -0.61137,-3.23569 -0.86551,-5.96498 -0.86453,-9.2845 9.8e-4,-3.35061 0.27263,-6.22173 0.892,-9.42784 l 0.14289,-0.73964 0.21614,0.0313 c 0.11889,0.0172 0.62444,0.0904 1.12346,0.16255 4.72191,0.68298 9.69368,0.66486 14.53521,-0.053 0.50908,-0.0755 0.93382,-0.12901 0.94387,-0.11897 0.0286,0.0286 0.27562,1.32194 0.42099,2.20453 0.35946,2.18235 0.53904,4.06201 0.6157,6.44455 0.11745,3.64993 -0.18717,7.41275 -0.88826,10.9721 l -0.14014,0.71152 -0.17292,-0.0324 c -0.0951,-0.0178 -0.49358,-0.0789 -0.88551,-0.13557 -4.97723,-0.72032 -9.99405,-0.71099 -14.87108,0.0277 -0.47802,0.0724 -0.87582,0.13164 -0.88402,0.13164 -0.008,0 -0.0909,-0.40229 -0.1838,-0.89397 z"
     id="path910" />
  <path
     style="fill:#000080;stroke:none;stroke-width:0.0534551"
     d="m 149.4011,178.25162 c -3.03596,-4.36098 -5.35019,-9.19033 -6.87325,-14.34316 -0.19175,-0.64872 -0.69943,-2.58523 -0.69943,-2.66792 0,-0.0685 2.13052,-0.35991 3.68261,-0.50375 1.74048,-0.1613 3.03266,-0.20458 5.20367,-0.17431 2.08659,0.0291 2.69151,0.0605 4.32306,0.22464 0.8362,0.0841 3.07855,0.39135 3.11385,0.42665 0.0491,0.0491 -0.47271,2.02633 -0.898,3.40268 -1.20405,3.89657 -2.91887,7.69174 -5.05136,11.17951 -0.75135,1.22886 -2.1289,3.27039 -2.20617,3.26957 -0.0157,-1.6e-4 -0.28345,-0.36643 -0.59498,-0.81391 z"
     id="path912" />
  <path
     style="fill:#000080;stroke:none;stroke-width:0.0588022"
     d="m 147.52557,139.41192 c -1.61424,-0.0901 -4.00405,-0.34172 -5.22396,-0.55002 l -0.41218,-0.0704 0.015,-0.23947 c 0.0163,-0.26069 0.51574,-2.12931 0.88566,-3.31362 1.50042,-4.80358 3.7591,-9.39308 6.69287,-13.59951 0.39662,-0.56868 0.51698,-0.70453 0.57216,-0.6458 0.0384,0.0409 0.33456,0.45745 0.65806,0.92566 3.10172,4.48924 5.49849,9.62375 6.96098,14.91229 0.43332,1.56692 0.51443,1.93912 0.42892,1.96811 -0.29331,0.0995 -3.2129,0.44327 -4.73586,0.55767 -1.11443,0.0837 -4.71959,0.11771 -5.84162,0.0551 z"
     id="path916" />
  <path
     style="fill:#00ffff;stroke:none;stroke-width:0.0971038"
     d="m 138.98045,138.19611 c -6.92998,-1.63914 -13.07665,-4.49575 -18.66309,-8.6735 -6.16647,-4.61152 -11.21521,-10.71249 -14.64033,-17.69157 -1.53044,-3.11845 -2.64603,-6.05762 -3.40389,-8.96798 -0.18746,-0.71986 -0.36136,-1.38098 -0.38646,-1.46914 -0.0374,-0.13119 0.0739,-0.17965 0.61235,-0.2668 4.53034,-0.73324 9.98999,-0.75195 14.66742,-0.0503 12.13048,1.81972 23.01655,7.93349 30.8461,17.3236 1.45129,1.74055 1.41116,1.37968 0.32942,2.96196 -3.20755,4.69171 -5.67518,10.04756 -7.17736,15.57804 -0.18815,0.69268 -0.34208,1.33619 -0.34208,1.43003 0,0.23445 -0.18956,0.21651 -1.84208,-0.17436 z"
     id="path918" />
  <path
     style="fill:#00ffff;stroke:none;stroke-width:0.0971038"
     d="m 159.14516,138.12904 c -1.66542,-6.50137 -4.14611,-12.00273 -7.6997,-17.07545 l -0.73855,-1.05428 0.26723,-0.35151 c 0.96564,-1.27018 2.45701,-2.93599 4.09506,-4.57404 2.57453,-2.57453 4.70744,-4.3297 7.61581,-6.26705 9.36942,-6.24123 20.99896,-9.14813 32.08823,-8.02072 1.52872,0.15542 3.25827,0.40439 3.33378,0.4799 0.0679,0.0679 -0.52551,2.24284 -1.07057,3.924 -5.08807,15.69342 -17.61758,27.81412 -33.42219,32.33166 -1.44119,0.41195 -3.95228,1.01394 -4.24609,1.01793 -0.0646,8.7e-4 -0.16495,-0.18382 -0.22301,-0.41044 z"
     id="path920" />
  <path
     style="fill:#00ffff;stroke:none;stroke-width:0.0971038"
     d="m 107.132,199.36675 c -1.36916,-0.0805 -3.2869,-0.28441 -4.5795,-0.48683 -0.81514,-0.12765 -0.78398,0.10849 -0.24773,-1.8773 1.60408,-5.9401 4.55623,-11.94077 8.27544,-16.82103 1.55912,-2.04584 2.4354,-3.03829 4.54289,-5.14517 2.007,-2.00641 3.24861,-3.09417 5.24274,-4.59309 4.68251,-3.5197 10.00525,-6.19298 15.63868,-7.85432 1.50357,-0.44341 4.28405,-1.11899 4.60546,-1.11899 0.13031,0 0.22424,0.24036 0.44523,1.13918 1.30295,5.29964 4.18495,11.61117 7.38206,16.1666 0.44908,0.63988 0.8173,1.19376 0.81826,1.23086 0.005,0.17459 -2.33827,2.89874 -3.6824,4.28183 -3.68704,3.79389 -7.14042,6.45048 -11.67167,8.97868 -2.61873,1.46112 -5.18294,2.58453 -8.20331,3.59395 -6.10094,2.03896 -12.29314,2.87464 -18.56615,2.50563 z"
     id="path922" />
  <path
     style="fill:#00ffff;stroke:none;stroke-width:0.0971038"
     d="m 187.94078,199.41083 c -7.2293,-0.38187 -13.45753,-1.9827 -19.72956,-5.07105 -4.02309,-1.98097 -7.12813,-4.02552 -10.5192,-6.92649 -1.98148,-1.6951 -4.90681,-4.74837 -6.48462,-6.76821 l -0.50889,-0.65145 0.67464,-0.94824 c 3.53196,-4.9644 6.03488,-10.49432 7.77348,-17.17463 l 0.11017,-0.42335 0.40527,0.0625 c 1.03907,0.1602 4.18456,1.00528 5.98849,1.60889 9.64829,3.22842 17.88337,9.18797 24.01093,17.37618 3.05249,4.07903 5.65634,9.08697 7.27242,13.98693 0.53142,1.61127 1.24404,4.19238 1.17621,4.26021 -0.062,0.062 -1.09387,0.21855 -2.55868,0.38823 -2.38531,0.27633 -5.50973,0.39148 -7.61066,0.2805 z"
     id="path924" />
  <path
     style="fill:#ffffff;stroke-width:0.138856"
     d="m 149.0725,117.87646 c -1.24197,-1.55201 -4.21314,-4.59636 -5.94998,-6.09656 -8.18075,-7.0661 -18.08341,-11.226 -28.98661,-12.176659 -3.21658,-0.280458 -8.72786,-0.07143 -12.33449,0.467809 -0.24295,0.0363 -0.40175,-0.721199 -0.851,-4.05934 -0.36876,-2.740019 -0.44179,-8.319717 -0.14336,-10.952344 1.34386,-11.854988 6.34055,-22.227294 14.59994,-30.307049 8.09187,-7.915873 18.04338,-12.607714 29.5757,-13.944049 2.29394,-0.265817 8.14911,-0.224333 10.60575,0.07514 19.1892,2.339249 35.01282,15.0922 41.18312,33.19129 1.77176,5.197059 2.62339,10.360693 2.62339,15.906289 0,2.989165 -0.1661,5.098528 -0.62534,7.941515 -0.18824,1.165314 -0.34226,2.137758 -0.34226,2.160998 0,0.0232 -0.54588,-0.0386 -1.21307,-0.137349 -3.67626,-0.544233 -10.14585,-0.60327 -13.62111,-0.124298 -9.85997,1.358937 -18.2793,5.020627 -25.91233,11.269637 -1.76371,1.44391 -4.95788,4.61707 -6.38167,6.33968 -0.56721,0.68625 -1.09749,1.32055 -1.17841,1.40956 -0.10832,0.11913 -0.38485,-0.13524 -1.04827,-0.96427 z"
     id="path28" />
  <path
     style="fill:#ffffff;stroke-width:0.19535"
     d="m 98.404404,198.02485 c -15.09165,-3.66967 -27.933237,-14.6045 -33.913147,-28.87763 -2.835798,-6.76861 -3.954933,-12.83843 -3.77063,-20.45064 0.143153,-5.91258 0.978967,-10.44083 2.883929,-15.62446 5.233938,-14.24219 16.729996,-25.33483 31.101971,-30.01053 2.690386,-0.87528 5.694193,-1.6203 5.934353,-1.47187 0.0865,0.0535 0.21801,0.42734 0.29216,0.8308 0.58209,3.16708 3.73201,10.56976 6.10216,14.34082 7.03999,11.20102 18.16918,19.25277 30.94297,22.38662 1.27633,0.31312 2.3503,0.59902 2.38661,0.63533 0.0363,0.0363 -0.0573,0.71817 -0.20804,1.51525 -0.9633,5.09408 -0.87873,13.4968 0.18639,18.51915 0.10107,0.47658 0.0531,0.50179 -1.60517,0.84312 -2.40916,0.49591 -6.95308,2.03032 -9.72282,3.28326 -11.58164,5.23915 -21.19063,15.27251 -25.93157,27.0768 -0.90284,2.24795 -2.24113,6.48047 -2.24113,7.08788 0,0.41497 -0.45012,0.39948 -2.438036,-0.0839 z"
     id="path30" />
  <path
     style="fill:#ffffff;stroke-width:0.19535"
     d="m 199.25124,198.1887 c -0.0416,-0.13409 -0.3511,-1.20927 -0.68785,-2.38928 -2.18957,-7.67252 -6.47652,-15.0388 -12.18781,-20.94233 -4.95406,-5.12081 -11.14949,-9.30528 -17.4632,-11.79484 -2.63635,-1.03955 -6.27283,-2.16131 -8.09456,-2.49698 -1.18077,-0.21757 -1.2826,-0.27443 -1.18533,-0.66195 0.59722,-2.37953 0.79469,-4.94876 0.77889,-10.134 -0.014,-4.59051 -0.0803,-5.8188 -0.41581,-7.70419 -0.21954,-1.23365 -0.37764,-2.26758 -0.35131,-2.29763 0.0263,-0.0301 0.95947,-0.27249 2.07367,-0.53874 5.36985,-1.2832 11.71911,-4.03635 16.16642,-7.01006 7.6486,-5.11425 13.3682,-11.60947 17.44005,-19.80503 1.49362,-3.00628 3.38538,-8.07235 3.73161,-9.99315 0.0727,-0.40346 0.2069,-0.77971 0.29816,-0.83611 0.0913,-0.0564 1.09905,0.12665 2.23953,0.40678 20.12396,4.94296 34.94193,21.64664 37.45319,42.21941 0.44171,3.61857 0.30058,10.42286 -0.28421,13.70281 -1.89888,10.65038 -6.37327,19.35556 -13.76916,26.78868 -2.8723,2.88676 -4.26457,4.05954 -7.32043,6.16636 -4.63429,3.19504 -10.34445,5.74189 -15.89599,7.08994 -2.24432,0.54497 -2.42326,0.56129 -2.52586,0.23031 z"
     id="path32" />
  <path
     style="fill:#ffffff;stroke-width:0.14066"
     d="m 147.7262,259.3862 c -16.71884,-0.77327 -31.96608,-10.05694 -40.51031,-24.66577 -3.42462,-5.85537 -5.65853,-12.76436 -6.41081,-19.82719 -0.22307,-2.0944 -0.22939,-7.80952 -0.0107,-9.69028 0.32446,-2.79045 0.75999,-5.26645 0.92638,-5.26645 0.0901,0 0.91961,0.10959 1.84329,0.24353 2.42904,0.35223 10.4968,0.34955 12.91454,-0.004 7.7963,-1.14103 14.2991,-3.48743 20.54568,-7.41348 4.2175,-2.65075 8.59284,-6.4775 11.73468,-10.26334 l 1.243,-1.49779 1.06615,1.28713 c 1.60365,1.93605 4.3789,4.72252 6.34838,6.37404 7.5483,6.32969 16.06954,10.0833 26.13696,11.51332 2.53848,0.36058 10.23067,0.35862 12.88337,-0.003 1.03085,-0.14063 1.90421,-0.22577 1.94078,-0.1892 0.14368,0.14368 0.73195,4.2097 0.89615,6.19401 0.2131,2.57522 0.10706,7.44708 -0.21569,9.90982 -1.77672,13.5573 -8.6714,25.37402 -19.56373,33.53008 -2.56641,1.9217 -4.44154,3.06075 -7.68287,4.66698 -6.18079,3.06286 -12.03333,4.61686 -19.02945,5.05281 -2.20897,0.13765 -2.98343,0.14521 -5.0558,0.0494 z"
     id="path34"
     inkscape:export-filename="/Users/idesrosiers/path34.png"
     inkscape:export-xdpi="96"
     inkscape:export-ydpi="96" />
</svg>
