<?xml version="1.0" standalone="no"?>
<!DOCTYPE svg PUBLIC "-//W3C//DTD SVG 20010904//EN"
 "http://www.w3.org/TR/2001/REC-SVG-20010904/DTD/svg10.dtd">
<svg version="1.0" xmlns="http://www.w3.org/2000/svg"
 width="221.000000pt" height="221.000000pt" viewBox="0 0 221.000000 221.000000"
 preserveAspectRatio="xMidYMid meet">
<metadata>
Created by potrace 1.14, written by Peter Selinger 2001-2017
</metadata>
<g transform="translate(0.000000,221.000000) scale(0.100000,-0.100000)"
fill="#000000" stroke="none">
<path d="M1025 2205 c-5 -2 -37 -11 -70 -21 -219 -64 -372 -291 -351 -521 l5
-62 -42 -12 c-107 -29 -213 -105 -277 -199 -52 -77 -111 -253 -79 -235 11 6
12 5 2 -6 -14 -14 -18 -123 -4 -115 4 3 6 -6 3 -19 -2 -14 0 -25 7 -25 5 0 8
-7 5 -15 -3 -8 1 -29 10 -46 9 -18 16 -36 16 -41 0 -13 59 -99 85 -125 13 -12
26 -19 31 -15 4 4 4 2 0 -5 -7 -13 32 -45 46 -37 5 3 7 1 6 -5 -5 -18 107 -75
129 -66 8 2 12 1 9 -4 -3 -5 3 -11 14 -14 11 -3 20 0 20 6 1 7 7 1 15 -13 9
-17 10 -27 3 -31 -7 -5 -9 -37 -5 -95 4 -49 7 -93 7 -97 0 -5 4 -5 10 -2 5 3
7 0 4 -9 -14 -37 112 -246 139 -229 6 3 7 1 3 -5 -7 -11 32 -38 47 -34 5 1 6
-2 2 -8 -7 -11 35 -31 49 -22 5 3 6 0 2 -6 -8 -14 62 -45 83 -37 9 3 12 3 8
-2 -14 -13 66 -31 82 -19 11 8 13 8 8 0 -4 -8 14 -12 58 -13 38 -1 65 2 65 8
0 6 7 8 15 5 28 -11 190 50 179 67 -3 5 1 6 9 4 30 -12 197 182 197 229 0 8 4
17 9 20 15 9 33 149 28 212 l-6 61 42 13 c68 20 159 69 151 82 -4 6 -3 8 4 4
15 -9 115 91 106 106 -4 7 -3 8 5 4 14 -9 85 139 77 160 -3 9 -1 12 4 9 6 -3
11 6 12 22 6 98 3 183 -9 222 -22 75 -73 172 -85 165 -6 -4 -8 -3 -5 3 9 14
-32 65 -45 57 -6 -4 -8 -3 -5 3 3 5 -2 16 -11 24 -39 33 -112 79 -126 79 -8 0
-17 4 -20 9 -3 4 -25 14 -49 20 l-44 13 4 90 c2 49 0 87 -5 84 -5 -3 -6 9 -4
26 3 20 1 29 -6 24 -6 -4 -8 2 -4 16 3 14 1 19 -6 14 -8 -4 -10 -2 -6 8 8 20
-55 138 -69 129 -7 -3 -9 -3 -5 2 11 11 -11 47 -24 39 -6 -4 -8 -3 -5 3 10 16
-103 106 -143 115 -8 2 -20 9 -25 16 -6 7 -27 14 -47 15 -20 1 -34 5 -31 10 2
4 -6 8 -19 8 -65 4 -174 6 -183 4z m160 -995 c3 -5 1 -10 -4 -10 -6 0 -11 5
-11 10 0 6 2 10 4 10 3 0 8 -4 11 -10z m-315 -274 c0 -2 -7 -7 -16 -10 -8 -3
-12 -2 -9 4 6 10 25 14 25 6z"/>
</g>
</svg>
